<svg xmlns="http://www.w3.org/2000/svg" width="379" height="295" viewBox="0 0 379 295">
  <defs>
    <style>
      .cls-1 {
        fill: none;
        stroke: #fff;
        stroke-width: 2px;
        fill-rule: evenodd;
      }
    </style>
  </defs>
  <path class="cls-1" d="M378,269s-23.5-10.5-34-41-32,24.5-35,30-52,68-114,13c0,0-12.5-16.5-44-1,0,0-16.5,29-40,18s-34-25-24-60-53-38-59-38-32,2.5-25-31,25-31,32-32,16-7.5,18,7,1.382,32.618,28,6c17-17,66.5,80.5,110,50,41.308-28.963,36.5-48.5,91-55,0,0,31-2.5,52-26s18.5-18,4-63c0,0,14.5-24-12-27s-26.5,2-79-17c0,0-1-3.5-22,10s-35.5,29-51,2c0,0-8-11.5-31-7s-25,15.5-31,20S74,72,65,57,47,23.5,42,13"/>
</svg>
